<svg width="429" height="90" viewBox="0 0 429 90" fill="none" xmlns="http://www.w3.org/2000/svg">
<rect width="429" height="90" rx="12" fill="#FD4C38"/>
<path d="M104.972 35.4V55H101.892V47.104C101.22 47.832 100.1 48.196 99.26 48.196C96.74 48.196 95.424 46.376 95.424 43.688V35.4H98.504V43.436C98.504 44.752 99.316 45.368 100.296 45.368C101.276 45.368 101.892 44.668 101.892 43.352V35.4H104.972ZM110.965 55H107.801V35.4H110.545V47.804L111.665 43.492L114.185 35.4H117.573V55H114.801V41.196L113.541 46.012L110.965 55ZM119.414 35.4H128.934V38.2H125.714V55H122.634V38.2H119.414V35.4ZM140.819 55H137.711L137.179 51.444H133.399L132.867 55H130.039L133.175 35.4H137.683L140.819 55ZM133.791 48.784H136.759L135.275 38.872L133.791 48.784ZM141.917 35.4H151.437V38.2H148.217V55H145.137V38.2H141.917V35.4ZM153.354 55V35.4H156.434V42.764H157.89C160.97 42.764 162.482 44.472 162.482 47.608V50.156C162.482 53.292 160.97 55 157.89 55H153.354ZM157.89 52.2C158.87 52.2 159.402 51.752 159.402 50.352V47.412C159.402 46.012 158.87 45.564 157.89 45.564H156.434V52.2H157.89ZM172.866 55H169.786V35.4H179.502V55H176.366V38.2H172.866V55ZM182.043 40.104C182.043 36.968 183.695 35.176 186.719 35.176C189.743 35.176 191.395 36.968 191.395 40.104V50.296C191.395 53.432 189.743 55.224 186.719 55.224C183.695 55.224 182.043 53.432 182.043 50.296V40.104ZM185.123 50.492C185.123 51.892 185.739 52.424 186.719 52.424C187.699 52.424 188.315 51.892 188.315 50.492V39.908C188.315 38.508 187.699 37.976 186.719 37.976C185.739 37.976 185.123 38.508 185.123 39.908V50.492ZM193.089 52.228C194.489 52.228 194.937 52.032 194.993 50.212L195.497 35.4H204.205V55H201.069V38.2H198.381L198.045 50.044C197.933 53.628 196.645 55.028 193.565 55.028H193.089V52.228ZM210.202 55H207.122V35.4H210.202V43.8H213.702V35.4H216.838V55H213.702V46.6H210.202V55ZM219.38 40.104C219.38 36.968 221.032 35.176 224.056 35.176C227.08 35.176 228.732 36.968 228.732 40.104V50.296C228.732 53.432 227.08 55.224 224.056 55.224C221.032 55.224 219.38 53.432 219.38 50.296V40.104ZM222.46 50.492C222.46 51.892 223.076 52.424 224.056 52.424C225.036 52.424 225.652 51.892 225.652 50.492V39.908C225.652 38.508 225.036 37.976 224.056 37.976C223.076 37.976 222.46 38.508 222.46 39.908V50.492ZM240.225 47.692V50.296C240.225 53.432 238.657 55.224 235.633 55.224C232.609 55.224 231.041 53.432 231.041 50.296V40.104C231.041 36.968 232.609 35.176 235.633 35.176C238.657 35.176 240.225 36.968 240.225 40.104V42.008H237.313V39.908C237.313 38.508 236.697 37.976 235.717 37.976C234.737 37.976 234.121 38.508 234.121 39.908V50.492C234.121 51.892 234.737 52.396 235.717 52.396C236.697 52.396 237.313 51.892 237.313 50.492V47.692H240.225ZM241.758 35.4H251.278V38.2H248.058V55H244.978V38.2H241.758V35.4ZM253.194 55V35.4H256.274V42.764H257.73C260.81 42.764 262.322 44.472 262.322 47.608V50.156C262.322 53.292 260.81 55 257.73 55H253.194ZM257.73 52.2C258.71 52.2 259.242 51.752 259.242 50.352V47.412C259.242 46.012 258.71 45.564 257.73 45.564H256.274V52.2H257.73ZM270.095 46.6H267.799V55H264.719V35.4H267.799V43.8H270.095V40.104C270.095 36.968 271.747 35.176 274.771 35.176C277.795 35.176 279.447 36.968 279.447 40.104V50.296C279.447 53.432 277.795 55.224 274.771 55.224C271.747 55.224 270.095 53.432 270.095 50.296V46.6ZM273.175 50.492C273.175 51.892 273.791 52.424 274.771 52.424C275.751 52.424 276.367 51.892 276.367 50.492V39.908C276.367 38.508 275.751 37.976 274.771 37.976C273.791 37.976 273.175 38.508 273.175 39.908V50.492ZM292.052 35.4H297.148V37.92H295.132V52.48H297.148V55H292.052V35.4ZM316.16 49.12C316.346 48.6347 316.552 48.1867 316.776 47.776C317 47.3467 317.252 46.9453 317.532 46.572H302.524V44.276H317.532C317.27 43.9027 317.028 43.5107 316.804 43.1C316.58 42.6707 316.374 42.2133 316.188 41.728H318.316C319.473 43.0907 320.742 44.1267 322.124 44.836V46.04C320.742 46.712 319.473 47.7387 318.316 49.12H316.16ZM332.596 55H327.5V52.48H329.516V37.92H327.5V35.4H332.596V55Z" fill="white"/>
</svg>
