<svg width="626" height="90" viewBox="0 0 626 90" fill="none" xmlns="http://www.w3.org/2000/svg">
<rect width="626" height="90" rx="12" fill="#FD4C38"/>
<path d="M140.7 46.6V55H137.62V35.4H140.7V43.8H144.2V35.4H147.336V55H144.2V46.6H140.7ZM156.961 35.4L160.097 55H156.989L156.457 51.444H152.677L152.145 55H149.317L152.453 35.4H156.961ZM154.553 38.872L153.069 48.784H156.037L154.553 38.872ZM168.364 35.4H171.444V55H168.364V47.104C167.692 47.832 166.572 48.196 165.732 48.196C163.212 48.196 161.896 46.376 161.896 43.688V35.4H164.976V43.436C164.976 44.752 165.788 45.368 166.768 45.368C167.748 45.368 168.364 44.668 168.364 43.352V35.4ZM181.105 35.4L184.241 55H181.133L180.601 51.444H176.821L176.289 55H173.461L176.597 35.4H181.105ZM178.697 38.872L177.213 48.784H180.181L178.697 38.872ZM185.339 38.2V35.4H194.859V38.2H191.639V55H188.559V38.2H185.339ZM201.311 55H196.775V35.4H199.855V42.764H201.311C204.391 42.764 205.903 44.472 205.903 47.608V50.156C205.903 53.292 204.391 55 201.311 55ZM199.855 52.2H201.311C202.291 52.2 202.823 51.752 202.823 50.352V47.412C202.823 46.012 202.291 45.564 201.311 45.564H199.855V52.2ZM219.228 47.692H222.14V50.296C222.14 53.432 220.572 55.224 217.548 55.224C214.524 55.224 212.956 53.432 212.956 50.296V40.104C212.956 36.968 214.524 35.176 217.548 35.176C220.572 35.176 222.14 36.968 222.14 40.104V42.008H219.228V39.908C219.228 38.508 218.612 37.976 217.632 37.976C216.652 37.976 216.036 38.508 216.036 39.908V50.492C216.036 51.892 216.652 52.396 217.632 52.396C218.612 52.396 219.228 51.892 219.228 50.492V47.692ZM234.376 55H229.504V35.4H238.128V38.2H232.584V43.212H234.376C237.456 43.212 239.024 44.92 239.024 48.056V50.156C239.024 53.292 237.456 55 234.376 55ZM232.584 52.2H234.376C235.356 52.2 235.944 51.752 235.944 50.352V47.86C235.944 46.46 235.356 46.012 234.376 46.012H232.584V52.2ZM244.737 38.2V43.66H248.965V46.46H244.737V52.2H250.057V55H241.657V35.4H250.057V38.2H244.737ZM258.546 47.692H261.458V50.296C261.458 53.432 259.89 55.224 256.866 55.224C253.842 55.224 252.274 53.432 252.274 50.296V40.104C252.274 36.968 253.842 35.176 256.866 35.176C259.89 35.176 261.458 36.968 261.458 40.104V42.008H258.546V39.908C258.546 38.508 257.93 37.976 256.95 37.976C255.97 37.976 255.354 38.508 255.354 39.908V50.492C255.354 51.892 255.97 52.396 256.95 52.396C257.93 52.396 258.546 51.892 258.546 50.492V47.692ZM266.967 38.2V55H263.887V35.4H273.603V55H270.467V38.2H266.967ZM275.528 55.028V52.228C276.928 52.228 277.376 52.032 277.432 50.212L277.936 35.4H286.644V55H283.508V38.2H280.82L280.484 50.044C280.372 53.628 279.084 55.028 276.004 55.028H275.528ZM296.394 35.4L299.53 55H296.422L295.89 51.444H292.11L291.578 55H288.75L291.886 35.4H296.394ZM293.986 38.872L292.502 48.784H295.47L293.986 38.872ZM300.628 38.2V35.4H310.148V38.2H306.928V55H303.848V38.2H300.628ZM315.144 46.6V55H312.064V35.4H315.144V43.8H318.644V35.4H321.78V55H318.644V46.6H315.144ZM327.402 39.908V50.492C327.402 51.892 328.018 52.424 328.998 52.424C329.978 52.424 330.594 51.892 330.594 50.492V39.908C330.594 38.508 329.978 37.976 328.998 37.976C328.018 37.976 327.402 38.508 327.402 39.908ZM324.322 50.296V40.104C324.322 36.968 325.974 35.176 328.998 35.176C332.022 35.176 333.674 36.968 333.674 40.104V50.296C333.674 53.432 332.022 55.224 328.998 55.224C325.974 55.224 324.322 53.432 324.322 50.296ZM339.343 55H336.263V35.4H344.383V38.2H339.343V55ZM349.85 39.908V50.492C349.85 51.892 350.466 52.424 351.446 52.424C352.426 52.424 353.042 51.892 353.042 50.492V39.908C353.042 38.508 352.426 37.976 351.446 37.976C350.466 37.976 349.85 38.508 349.85 39.908ZM346.77 50.296V40.104C346.77 36.968 348.422 35.176 351.446 35.176C354.47 35.176 356.122 36.968 356.122 40.104V50.296C356.122 53.432 354.47 55.224 351.446 55.224C348.422 55.224 346.77 53.432 346.77 50.296ZM370.423 35.4L373.559 55H370.451L369.919 51.444H366.139L365.607 55H362.779L365.915 35.4H370.423ZM368.015 38.872L366.531 48.784H369.499L368.015 38.872ZM385.689 35.4L382.385 50.016C381.657 53.544 380.453 55.308 376.169 55.028V52.284C377.737 52.396 378.633 52.116 378.885 50.688L378.913 50.52L374.657 35.4H377.709L379.389 42.092L380.341 46.684L381.069 42.12L382.469 35.4H385.689ZM399.499 57.632H396.447V55H389.867V57.632H386.871V52.256H388.075C388.607 51.584 388.775 50.856 388.831 49.708L389.531 35.4H398.155V52.256H399.499V57.632ZM392.415 38.2L391.855 49.652C391.771 51.136 391.491 51.78 390.987 52.256H395.019V38.2H392.415ZM407.515 46.012L404.939 55H401.775V35.4H404.519V47.804L405.639 43.492L408.159 35.4H411.547V55H408.775V41.196L407.515 46.012ZM413.388 38.2V35.4H422.908V38.2H419.688V55H416.608V38.2H413.388ZM431.657 35.4L434.793 55H431.685L431.153 51.444H427.373L426.841 55H424.013L427.149 35.4H431.657ZM429.249 38.872L427.765 48.784H430.733L429.249 38.872ZM446.798 55V35.4H451.894V37.92H449.878V52.48H451.894V55H446.798ZM470.906 49.12C471.092 48.6347 471.298 48.1867 471.522 47.776C471.746 47.3467 471.998 46.9453 472.278 46.572H457.27V44.276H472.278C472.016 43.9027 471.774 43.5107 471.55 43.1C471.326 42.6707 471.12 42.2133 470.934 41.728H473.062C474.219 43.0907 475.488 44.1267 476.87 44.836V46.04C475.488 46.712 474.219 47.7387 473.062 49.12H470.906ZM487.342 35.4V55H482.246V52.48H484.262V37.92H482.246V35.4H487.342Z" fill="white"/>
</svg>
