<svg width="759" height="90" viewBox="0 0 759 90" fill="none" xmlns="http://www.w3.org/2000/svg">
<rect width="759" height="89.7293" rx="12" fill="#FD4C38"/>
<path d="M207.2 46.4647V54.8647H204.12V35.2647H207.2V43.6647H210.7V35.2647H213.836V54.8647H210.7V46.4647H207.2ZM223.461 35.2647L226.597 54.8647H223.489L222.957 51.3087H219.177L218.645 54.8647H215.817L218.953 35.2647H223.461ZM221.053 38.7367L219.569 48.6487H222.537L221.053 38.7367ZM234.864 35.2647H237.944V54.8647H234.864V46.9687C234.192 47.6967 233.072 48.0607 232.232 48.0607C229.712 48.0607 228.396 46.2407 228.396 43.5527V35.2647H231.476V43.3007C231.476 44.6167 232.288 45.2327 233.268 45.2327C234.248 45.2327 234.864 44.5327 234.864 43.2167V35.2647ZM247.605 35.2647L250.741 54.8647H247.633L247.101 51.3087H243.321L242.789 54.8647H239.961L243.097 35.2647H247.605ZM245.197 38.7367L243.713 48.6487H246.681L245.197 38.7367ZM251.839 38.0647V35.2647H261.359V38.0647H258.139V54.8647H255.059V38.0647H251.839ZM267.811 54.8647H263.275V35.2647H266.355V42.6287H267.811C270.891 42.6287 272.403 44.3367 272.403 47.4727V50.0207C272.403 53.1567 270.891 54.8647 267.811 54.8647ZM266.355 52.0647H267.811C268.791 52.0647 269.323 51.6167 269.323 50.2167V47.2767C269.323 45.8767 268.791 45.4287 267.811 45.4287H266.355V52.0647ZM285.728 47.5567H288.64V50.1607C288.64 53.2967 287.072 55.0887 284.048 55.0887C281.024 55.0887 279.456 53.2967 279.456 50.1607V39.9687C279.456 36.8327 281.024 35.0407 284.048 35.0407C287.072 35.0407 288.64 36.8327 288.64 39.9687V41.8727H285.728V39.7727C285.728 38.3727 285.112 37.8407 284.132 37.8407C283.152 37.8407 282.536 38.3727 282.536 39.7727V50.3567C282.536 51.7567 283.152 52.2607 284.132 52.2607C285.112 52.2607 285.728 51.7567 285.728 50.3567V47.5567ZM300.876 54.8647H296.004V35.2647H304.628V38.0647H299.084V43.0767H300.876C303.956 43.0767 305.524 44.7847 305.524 47.9207V50.0207C305.524 53.1567 303.956 54.8647 300.876 54.8647ZM299.084 52.0647H300.876C301.856 52.0647 302.444 51.6167 302.444 50.2167V47.7247C302.444 46.3247 301.856 45.8767 300.876 45.8767H299.084V52.0647ZM311.237 38.0647V43.5247H315.465V46.3247H311.237V52.0647H316.557V54.8647H308.157V35.2647H316.557V38.0647H311.237ZM325.046 47.5567H327.958V50.1607C327.958 53.2967 326.39 55.0887 323.366 55.0887C320.342 55.0887 318.774 53.2967 318.774 50.1607V39.9687C318.774 36.8327 320.342 35.0407 323.366 35.0407C326.39 35.0407 327.958 36.8327 327.958 39.9687V41.8727H325.046V39.7727C325.046 38.3727 324.43 37.8407 323.45 37.8407C322.47 37.8407 321.854 38.3727 321.854 39.7727V50.3567C321.854 51.7567 322.47 52.2607 323.45 52.2607C324.43 52.2607 325.046 51.7567 325.046 50.3567V47.5567ZM333.467 38.0647V54.8647H330.387V35.2647H340.103V54.8647H336.967V38.0647H333.467ZM342.028 54.8927V52.0927C343.428 52.0927 343.876 51.8967 343.932 50.0767L344.436 35.2647H353.144V54.8647H350.008V38.0647H347.32L346.984 49.9087C346.872 53.4927 345.584 54.8927 342.504 54.8927H342.028ZM362.894 35.2647L366.03 54.8647H362.922L362.39 51.3087H358.61L358.078 54.8647H355.25L358.386 35.2647H362.894ZM360.486 38.7367L359.002 48.6487H361.97L360.486 38.7367ZM367.128 38.0647V35.2647H376.648V38.0647H373.428V54.8647H370.348V38.0647H367.128ZM381.644 46.4647V54.8647H378.564V35.2647H381.644V43.6647H385.144V35.2647H388.28V54.8647H385.144V46.4647H381.644ZM393.902 39.7727V50.3567C393.902 51.7567 394.518 52.2887 395.498 52.2887C396.478 52.2887 397.094 51.7567 397.094 50.3567V39.7727C397.094 38.3727 396.478 37.8407 395.498 37.8407C394.518 37.8407 393.902 38.3727 393.902 39.7727ZM390.822 50.1607V39.9687C390.822 36.8327 392.474 35.0407 395.498 35.0407C398.522 35.0407 400.174 36.8327 400.174 39.9687V50.1607C400.174 53.2967 398.522 55.0887 395.498 55.0887C392.474 55.0887 390.822 53.2967 390.822 50.1607ZM405.843 54.8647H402.763V35.2647H410.883V38.0647H405.843V54.8647ZM416.35 39.7727V50.3567C416.35 51.7567 416.966 52.2887 417.946 52.2887C418.926 52.2887 419.542 51.7567 419.542 50.3567V39.7727C419.542 38.3727 418.926 37.8407 417.946 37.8407C416.966 37.8407 416.35 38.3727 416.35 39.7727ZM413.27 50.1607V39.9687C413.27 36.8327 414.922 35.0407 417.946 35.0407C420.97 35.0407 422.622 36.8327 422.622 39.9687V50.1607C422.622 53.2967 420.97 55.0887 417.946 55.0887C414.922 55.0887 413.27 53.2967 413.27 50.1607ZM436.923 35.2647L440.059 54.8647H436.951L436.419 51.3087H432.639L432.107 54.8647H429.279L432.415 35.2647H436.923ZM434.515 38.7367L433.031 48.6487H435.999L434.515 38.7367ZM452.189 35.2647L448.885 49.8807C448.157 53.4087 446.953 55.1727 442.669 54.8927V52.1487C444.237 52.2607 445.133 51.9807 445.385 50.5527L445.413 50.3847L441.157 35.2647H444.209L445.889 41.9567L446.841 46.5487L447.569 41.9847L448.969 35.2647H452.189ZM465.999 57.4967H462.947V54.8647H456.367V57.4967H453.371V52.1207H454.575C455.107 51.4487 455.275 50.7207 455.331 49.5727L456.031 35.2647H464.655V52.1207H465.999V57.4967ZM458.915 38.0647L458.355 49.5167C458.271 51.0007 457.991 51.6447 457.487 52.1207H461.519V38.0647H458.915ZM474.015 45.8767L471.439 54.8647H468.275V35.2647H471.019V47.6687L472.139 43.3567L474.659 35.2647H478.047V54.8647H475.275V41.0607L474.015 45.8767ZM479.888 38.0647V35.2647H489.408V38.0647H486.188V54.8647H483.108V38.0647H479.888ZM498.157 35.2647L501.293 54.8647H498.185L497.653 51.3087H493.873L493.341 54.8647H490.513L493.649 35.2647H498.157ZM495.749 38.7367L494.265 48.6487H497.233L495.749 38.7367ZM513.298 54.8647V35.2647H518.394V37.7847H516.378V52.3447H518.394V54.8647H513.298ZM537.406 48.9847C537.592 48.4994 537.798 48.0514 538.022 47.6407C538.246 47.2114 538.498 46.8101 538.778 46.4367H523.77V44.1407H538.778C538.516 43.7674 538.274 43.3754 538.05 42.9647C537.826 42.5354 537.62 42.0781 537.434 41.5927H539.562C540.719 42.9554 541.988 43.9914 543.37 44.7007V45.9047C541.988 46.5767 540.719 47.6034 539.562 48.9847H537.406ZM553.842 35.2647V54.8647H548.746V52.3447H550.762V37.7847H548.746V35.2647H553.842Z" fill="white"/>
</svg>
