<svg width="1520" height="90" viewBox="0 0 1520 90" fill="none" xmlns="http://www.w3.org/2000/svg">
<rect width="1520" height="90" rx="12" fill="#FD4C38"/>
<path d="M587.7 46.6V55H584.62V35.4H587.7V43.8H591.2V35.4H594.336V55H591.2V46.6H587.7ZM603.961 35.4L607.097 55H603.989L603.457 51.444H599.677L599.145 55H596.317L599.453 35.4H603.961ZM601.553 38.872L600.069 48.784H603.037L601.553 38.872ZM615.364 35.4H618.444V55H615.364V47.104C614.692 47.832 613.572 48.196 612.732 48.196C610.212 48.196 608.896 46.376 608.896 43.688V35.4H611.976V43.436C611.976 44.752 612.788 45.368 613.768 45.368C614.748 45.368 615.364 44.668 615.364 43.352V35.4ZM628.105 35.4L631.241 55H628.133L627.601 51.444H623.821L623.289 55H620.461L623.597 35.4H628.105ZM625.697 38.872L624.213 48.784H627.181L625.697 38.872ZM632.339 38.2V35.4H641.859V38.2H638.639V55H635.559V38.2H632.339ZM648.311 55H643.775V35.4H646.855V42.764H648.311C651.391 42.764 652.903 44.472 652.903 47.608V50.156C652.903 53.292 651.391 55 648.311 55ZM646.855 52.2H648.311C649.291 52.2 649.823 51.752 649.823 50.352V47.412C649.823 46.012 649.291 45.564 648.311 45.564H646.855V52.2ZM666.228 47.692H669.14V50.296C669.14 53.432 667.572 55.224 664.548 55.224C661.524 55.224 659.956 53.432 659.956 50.296V40.104C659.956 36.968 661.524 35.176 664.548 35.176C667.572 35.176 669.14 36.968 669.14 40.104V42.008H666.228V39.908C666.228 38.508 665.612 37.976 664.632 37.976C663.652 37.976 663.036 38.508 663.036 39.908V50.492C663.036 51.892 663.652 52.396 664.632 52.396C665.612 52.396 666.228 51.892 666.228 50.492V47.692ZM681.376 55H676.504V35.4H685.128V38.2H679.584V43.212H681.376C684.456 43.212 686.024 44.92 686.024 48.056V50.156C686.024 53.292 684.456 55 681.376 55ZM679.584 52.2H681.376C682.356 52.2 682.944 51.752 682.944 50.352V47.86C682.944 46.46 682.356 46.012 681.376 46.012H679.584V52.2ZM691.737 38.2V43.66H695.965V46.46H691.737V52.2H697.057V55H688.657V35.4H697.057V38.2H691.737ZM705.546 47.692H708.458V50.296C708.458 53.432 706.89 55.224 703.866 55.224C700.842 55.224 699.274 53.432 699.274 50.296V40.104C699.274 36.968 700.842 35.176 703.866 35.176C706.89 35.176 708.458 36.968 708.458 40.104V42.008H705.546V39.908C705.546 38.508 704.93 37.976 703.95 37.976C702.97 37.976 702.354 38.508 702.354 39.908V50.492C702.354 51.892 702.97 52.396 703.95 52.396C704.93 52.396 705.546 51.892 705.546 50.492V47.692ZM713.967 38.2V55H710.887V35.4H720.603V55H717.467V38.2H713.967ZM722.528 55.028V52.228C723.928 52.228 724.376 52.032 724.432 50.212L724.936 35.4H733.644V55H730.508V38.2H727.82L727.484 50.044C727.372 53.628 726.084 55.028 723.004 55.028H722.528ZM743.394 35.4L746.53 55H743.422L742.89 51.444H739.11L738.578 55H735.75L738.886 35.4H743.394ZM740.986 38.872L739.502 48.784H742.47L740.986 38.872ZM747.628 38.2V35.4H757.148V38.2H753.928V55H750.848V38.2H747.628ZM762.144 46.6V55H759.064V35.4H762.144V43.8H765.644V35.4H768.78V55H765.644V46.6H762.144ZM774.402 39.908V50.492C774.402 51.892 775.018 52.424 775.998 52.424C776.978 52.424 777.594 51.892 777.594 50.492V39.908C777.594 38.508 776.978 37.976 775.998 37.976C775.018 37.976 774.402 38.508 774.402 39.908ZM771.322 50.296V40.104C771.322 36.968 772.974 35.176 775.998 35.176C779.022 35.176 780.674 36.968 780.674 40.104V50.296C780.674 53.432 779.022 55.224 775.998 55.224C772.974 55.224 771.322 53.432 771.322 50.296ZM786.343 55H783.263V35.4H791.383V38.2H786.343V55ZM796.85 39.908V50.492C796.85 51.892 797.466 52.424 798.446 52.424C799.426 52.424 800.042 51.892 800.042 50.492V39.908C800.042 38.508 799.426 37.976 798.446 37.976C797.466 37.976 796.85 38.508 796.85 39.908ZM793.77 50.296V40.104C793.77 36.968 795.422 35.176 798.446 35.176C801.47 35.176 803.122 36.968 803.122 40.104V50.296C803.122 53.432 801.47 55.224 798.446 55.224C795.422 55.224 793.77 53.432 793.77 50.296ZM817.423 35.4L820.559 55H817.451L816.919 51.444H813.139L812.607 55H809.779L812.915 35.4H817.423ZM815.015 38.872L813.531 48.784H816.499L815.015 38.872ZM832.689 35.4L829.385 50.016C828.657 53.544 827.453 55.308 823.169 55.028V52.284C824.737 52.396 825.633 52.116 825.885 50.688L825.913 50.52L821.657 35.4H824.709L826.389 42.092L827.341 46.684L828.069 42.12L829.469 35.4H832.689ZM846.499 57.632H843.447V55H836.867V57.632H833.871V52.256H835.075C835.607 51.584 835.775 50.856 835.831 49.708L836.531 35.4H845.155V52.256H846.499V57.632ZM839.415 38.2L838.855 49.652C838.771 51.136 838.491 51.78 837.987 52.256H842.019V38.2H839.415ZM854.515 46.012L851.939 55H848.775V35.4H851.519V47.804L852.639 43.492L855.159 35.4H858.547V55H855.775V41.196L854.515 46.012ZM860.388 38.2V35.4H869.908V38.2H866.688V55H863.608V38.2H860.388ZM878.657 35.4L881.793 55H878.685L878.153 51.444H874.373L873.841 55H871.013L874.149 35.4H878.657ZM876.249 38.872L874.765 48.784H877.733L876.249 38.872ZM893.798 55V35.4H898.894V37.92H896.878V52.48H898.894V55H893.798ZM917.906 49.12C918.092 48.6347 918.298 48.1867 918.522 47.776C918.746 47.3467 918.998 46.9453 919.278 46.572H904.27V44.276H919.278C919.016 43.9027 918.774 43.5107 918.55 43.1C918.326 42.6707 918.12 42.2133 917.934 41.728H920.062C921.219 43.0907 922.488 44.1267 923.87 44.836V46.04C922.488 46.712 921.219 47.7387 920.062 49.12H917.906ZM934.342 35.4V55H929.246V52.48H931.262V37.92H929.246V35.4H934.342Z" fill="white"/>
</svg>
