<svg width="168" height="60" viewBox="0 0 168 60" fill="none" xmlns="http://www.w3.org/2000/svg">
<path d="M8 1H160C163.866 1 167 4.13401 167 8V52C167 55.866 163.866 59 160 59H8C4.13401 59 1 55.866 1 52V8C1 4.13401 4.13401 1 8 1Z" stroke="#C8D1D8" stroke-width="2"/>
<path d="M47.608 21.7L49.552 33.628L51.352 21.7H55.024V38.5H52.528V26.452L50.704 38.5H48.208L46.24 26.62V38.5H43.936V21.7H47.608ZM60.0644 24.1V28.78H63.6884V31.18H60.0644V36.1H64.6244V38.5H57.4244V21.7H64.6244V24.1H60.0644ZM69.3803 31.3V38.5H66.7403V21.7H69.3803V28.9H72.3803V21.7H75.0683V38.5H72.3803V31.3H69.3803ZM82.0705 34.468V31.3H80.1025V38.5H77.4625V21.7H80.1025V28.9H82.0705V25.732C82.0705 23.044 83.4865 21.508 86.0785 21.508C88.6705 21.508 90.0865 23.044 90.0865 25.732V34.468C90.0865 37.156 88.6705 38.692 86.0785 38.692C83.4865 38.692 82.0705 37.156 82.0705 34.468ZM84.7105 25.564V34.636C84.7105 35.836 85.2385 36.292 86.0785 36.292C86.9185 36.292 87.4465 35.836 87.4465 34.636V25.564C87.4465 24.364 86.9185 23.908 86.0785 23.908C85.2385 23.908 84.7105 24.364 84.7105 25.564Z" fill="#404850"/>
<path fill-rule="evenodd" clip-rule="evenodd" d="M104.276 21L113 29.2875L121.724 21L123 22.2125L114.276 30.5L123 38.7875L121.724 40L113 31.7125L104.276 40L103 38.7875L111.724 30.5L103 22.2125L104.276 21Z" fill="#8B97A4"/>
</svg>
