<svg width="80" height="15" viewBox="0 0 80 15" fill="none" xmlns="http://www.w3.org/2000/svg">
<path d="M3.84 0.160155L5.46 10.1002L6.96 0.160155H10.02V14.1602H7.94V4.12016L6.42 14.1602H4.34L2.7 4.26016V14.1602H0.78V0.160155H3.84ZM14.2203 2.16016V6.06016H17.2403V8.06016H14.2203V12.1602H18.0203V14.1602H12.0203V0.160155H18.0203V2.16016H14.2203ZM21.9836 8.16016V14.1602H19.7836V0.160155H21.9836V6.16016H24.4836V0.160155H26.7236V14.1602H24.4836V8.16016H21.9836ZM32.5588 10.8002V8.16016H30.9188V14.1602H28.7188V0.160155H30.9188V6.16016H32.5588V3.52016C32.5588 1.28016 33.7388 0.000156164 35.8988 0.000156164C38.0588 0.000156164 39.2388 1.28016 39.2388 3.52016V10.8002C39.2388 13.0402 38.0588 14.3202 35.8988 14.3202C33.7388 14.3202 32.5588 13.0402 32.5588 10.8002ZM34.7588 3.38016V10.9402C34.7588 11.9402 35.1988 12.3202 35.8988 12.3202C36.5988 12.3202 37.0388 11.9402 37.0388 10.9402V3.38016C37.0388 2.38016 36.5988 2.00016 35.8988 2.00016C35.1988 2.00016 34.7588 2.38016 34.7588 3.38016Z" fill="white"/>
<line x1="50" y1="4.16016" x2="80" y2="4.16016" stroke="#8B97A4" stroke-width="2"/>
<line x1="50" y1="10.1602" x2="80" y2="10.1602" stroke="#8B97A4" stroke-width="2"/>
</svg>
