<svg width="719" height="90" viewBox="0 0 719 90" fill="none" xmlns="http://www.w3.org/2000/svg">
<rect width="719" height="90" rx="8" fill="#FD4C38"/>
<path d="M252.448 39.908V50.492C252.448 51.892 253.064 52.424 254.044 52.424C255.024 52.424 255.64 51.892 255.64 50.492V39.908C255.64 38.508 255.024 37.976 254.044 37.976C253.064 37.976 252.448 38.508 252.448 39.908ZM249.368 50.296V40.104C249.368 36.968 251.02 35.176 254.044 35.176C257.068 35.176 258.72 36.968 258.72 40.104V50.296C258.72 53.432 257.068 55.224 254.044 55.224C251.02 55.224 249.368 53.432 249.368 50.296ZM267.302 47.692H270.214V50.296C270.214 53.432 268.646 55.224 265.622 55.224C262.598 55.224 261.03 53.432 261.03 50.296V40.104C261.03 36.968 262.598 35.176 265.622 35.176C268.646 35.176 270.214 36.968 270.214 40.104V42.008H267.302V39.908C267.302 38.508 266.686 37.976 265.706 37.976C264.726 37.976 264.11 38.508 264.11 39.908V50.492C264.11 51.892 264.726 52.396 265.706 52.396C266.686 52.396 267.302 51.892 267.302 50.492V47.692ZM271.746 38.2V35.4H281.266V38.2H278.046V55H274.966V38.2H271.746ZM290.015 35.4L293.151 55H290.043L289.511 51.444H285.731L285.199 55H282.371L285.507 35.4H290.015ZM287.607 38.872L286.123 48.784H289.091L287.607 38.872ZM299.793 35.4C302.985 35.4 304.357 36.884 304.357 39.908V40.608C304.357 42.624 303.741 43.912 302.369 44.556C304.021 45.2 304.665 46.684 304.665 48.756V50.352C304.665 53.376 303.069 55 299.989 55H295.145V35.4H299.793ZM299.597 46.18H298.225V52.2H299.989C301.025 52.2 301.585 51.724 301.585 50.268V48.56C301.585 46.74 300.997 46.18 299.597 46.18ZM299.709 38.2H298.225V43.38H299.429C300.577 43.38 301.277 42.876 301.277 41.308V40.216C301.277 38.816 300.801 38.2 299.709 38.2ZM312.82 46.012L310.244 55H307.08V35.4H309.824V47.804L310.944 43.492L313.464 35.4H316.852V55H314.08V41.196L312.82 46.012ZM318.693 38.2V35.4H328.213V38.2H324.993V55H321.913V38.2H318.693ZM334.666 55H330.13V35.4H333.21V42.764H334.666C337.746 42.764 339.258 44.472 339.258 47.608V50.156C339.258 53.292 337.746 55 334.666 55ZM333.21 52.2H334.666C335.646 52.2 336.178 51.752 336.178 50.352V47.412C336.178 46.012 335.646 45.564 334.666 45.564H333.21V52.2ZM352.498 41.308V40.216C352.498 38.452 351.882 37.976 350.902 37.976C349.922 37.976 349.278 38.508 349.278 39.908V41.504H346.45V40.048C346.45 36.912 347.962 35.176 350.986 35.176C354.01 35.176 355.578 36.968 355.578 40.104V40.608C355.578 42.708 354.906 44.024 353.422 44.64C354.962 45.312 355.578 46.768 355.578 48.756V50.296C355.578 53.432 354.01 55.224 350.986 55.224C347.962 55.224 346.394 53.432 346.394 50.296V48.14H349.306V50.492C349.306 51.892 349.922 52.424 350.902 52.424C351.882 52.424 352.498 51.948 352.498 50.212V48.672C352.498 46.852 351.882 46.18 350.482 46.18H349.726V43.38H350.65C351.798 43.38 352.498 42.876 352.498 41.308ZM365.056 35.4L368.192 55H365.084L364.552 51.444H360.772L360.24 55H357.412L360.548 35.4H365.056ZM362.648 38.872L361.164 48.784H364.132L362.648 38.872ZM372.762 55H369.626C369.934 54.272 369.962 53.572 369.962 52.62V49.596C369.962 47.552 370.466 46.068 372.006 45.424C370.634 44.78 369.99 43.464 369.99 41.448V39.908C369.99 36.884 371.362 35.4 374.554 35.4H379.202V55H376.122V47.02H375.058C373.658 47.02 373.042 47.692 373.042 49.512V52.592C373.042 54.188 372.93 54.496 372.762 55ZM376.122 38.2H374.638C373.546 38.2 373.07 38.816 373.07 40.216V42.148C373.07 43.716 373.77 44.22 374.918 44.22H376.122V38.2ZM386.66 35.4C389.852 35.4 391.224 36.884 391.224 39.908V40.608C391.224 42.624 390.608 43.912 389.236 44.556C390.888 45.2 391.532 46.684 391.532 48.756V50.352C391.532 53.376 389.936 55 386.856 55H382.012V35.4H386.66ZM386.464 46.18H385.092V52.2H386.856C387.892 52.2 388.452 51.724 388.452 50.268V48.56C388.452 46.74 387.864 46.18 386.464 46.18ZM386.576 38.2H385.092V43.38H386.296C387.444 43.38 388.144 42.876 388.144 41.308V40.216C388.144 38.816 387.668 38.2 386.576 38.2ZM400.975 55L397.979 47.188L397.027 48.98V55H393.947V35.4H397.027V43.94L401.059 35.4H404.139L399.855 44.136L404.139 55H400.975ZM416.237 35.4L412.933 50.016C412.205 53.544 411.001 55.308 406.717 55.028V52.284C408.285 52.396 409.181 52.116 409.433 50.688L409.461 50.52L405.205 35.4H408.257L409.937 42.092L410.889 46.684L411.617 42.12L413.017 35.4H416.237ZM428.102 55V35.4H433.198V37.92H431.182V52.48H433.198V55H428.102ZM452.209 49.12C452.396 48.6347 452.601 48.1867 452.825 47.776C453.049 47.3467 453.301 46.9453 453.581 46.572H438.573V44.276H453.581C453.32 43.9027 453.077 43.5107 452.853 43.1C452.629 42.6707 452.424 42.2133 452.237 41.728H454.365C455.522 43.0907 456.792 44.1267 458.173 44.836V46.04C456.792 46.712 455.522 47.7387 454.365 49.12H452.209ZM468.645 35.4V55H463.549V52.48H465.565V37.92H463.549V35.4H468.645Z" fill="white"/>
</svg>
