<svg width="75" height="34" viewBox="0 0 75 34" fill="none" xmlns="http://www.w3.org/2000/svg">
<rect width="75" height="34" rx="8" fill="#FD4C38"/>
<path d="M17.2385 8.618C18.6425 8.618 19.6738 9.034 20.3325 9.866C21.0085 10.698 21.3465 11.8073 21.3465 13.194V14.832H19.4225V13.09C19.4225 12.258 19.2492 11.6167 18.9025 11.166C18.5732 10.698 18.0358 10.464 17.2905 10.464C16.5625 10.464 16.0252 10.698 15.6785 11.166C15.3318 11.6167 15.1585 12.258 15.1585 13.09V22.71C15.1585 23.542 15.3318 24.192 15.6785 24.66C16.0252 25.1107 16.5625 25.336 17.2905 25.336C18.0358 25.336 18.5732 25.1107 18.9025 24.66C19.2492 24.192 19.4225 23.542 19.4225 22.71V20.344H21.3465V22.606C21.3465 23.9927 21.0085 25.102 20.3325 25.934C19.6738 26.766 18.6425 27.182 17.2385 27.182C15.8518 27.182 14.8205 26.766 14.1445 25.934C13.4858 25.102 13.1565 23.9927 13.1565 22.606V13.194C13.1565 12.5007 13.2345 11.8767 13.3905 11.322C13.5638 10.75 13.8152 10.2647 14.1445 9.866C14.4912 9.46733 14.9158 9.164 15.4185 8.956C15.9385 8.73067 16.5452 8.618 17.2385 8.618ZM26.8035 19.096L25.7375 20.89V27H23.7095V8.8H25.7375V17.588L30.5735 8.8H32.6275L28.0255 17.094L32.7835 27H30.7035L26.8035 19.096ZM34.7121 13.194C34.7121 11.79 35.0501 10.6807 35.7261 9.866C36.4195 9.034 37.4681 8.618 38.8721 8.618C40.2761 8.618 41.3248 9.034 42.0181 9.866C42.7115 10.6807 43.0581 11.79 43.0581 13.194V22.606C43.0581 23.9927 42.7115 25.102 42.0181 25.934C41.3248 26.766 40.2761 27.182 38.8721 27.182C37.4681 27.182 36.4195 26.766 35.7261 25.934C35.0501 25.102 34.7121 23.9927 34.7121 22.606V13.194ZM36.7141 22.71C36.7141 23.542 36.8875 24.192 37.2341 24.66C37.5981 25.1107 38.1441 25.336 38.8721 25.336C39.6175 25.336 40.1635 25.1107 40.5101 24.66C40.8568 24.192 41.0301 23.542 41.0301 22.71V13.09C41.0301 12.258 40.8568 11.6167 40.5101 11.166C40.1635 10.698 39.6175 10.464 38.8721 10.464C38.1441 10.464 37.5981 10.698 37.2341 11.166C36.8875 11.6167 36.7141 12.258 36.7141 13.09V22.71ZM49.4716 8.8C50.9103 8.8 51.9503 9.19867 52.5916 9.996C53.2329 10.776 53.5536 11.8593 53.5536 13.246V15.43C53.5536 16.886 53.2069 17.9867 52.5136 18.732C51.8376 19.46 50.7716 19.824 49.3156 19.824H47.5216V27H45.4936V8.8H49.4716ZM49.3156 18.004C50.0783 18.004 50.6416 17.822 51.0056 17.458C51.3696 17.0767 51.5516 16.444 51.5516 15.56V13.142C51.5516 12.31 51.3869 11.686 51.0576 11.27C50.7456 10.854 50.2169 10.646 49.4716 10.646H47.5216V18.004H49.3156ZM55.506 13.194C55.506 11.79 55.844 10.6807 56.52 9.866C57.2134 9.034 58.262 8.618 59.666 8.618C61.07 8.618 62.1187 9.034 62.812 9.866C63.5054 10.6807 63.852 11.79 63.852 13.194V22.606C63.852 23.9927 63.5054 25.102 62.812 25.934C62.1187 26.766 61.07 27.182 59.666 27.182C58.262 27.182 57.2134 26.766 56.52 25.934C55.844 25.102 55.506 23.9927 55.506 22.606V13.194ZM57.508 22.71C57.508 23.542 57.6814 24.192 58.028 24.66C58.392 25.1107 58.938 25.336 59.666 25.336C60.4114 25.336 60.9574 25.1107 61.304 24.66C61.6507 24.192 61.824 23.542 61.824 22.71V13.09C61.824 12.258 61.6507 11.6167 61.304 11.166C60.9574 10.698 60.4114 10.464 59.666 10.464C58.938 10.464 58.392 10.698 58.028 11.166C57.6814 11.6167 57.508 12.258 57.508 13.09V22.71Z" fill="white"/>
</svg>
