<svg width="459" height="90" viewBox="0 0 459 90" fill="none" xmlns="http://www.w3.org/2000/svg">
<rect width="459" height="90" rx="12" fill="#FD4C38"/>
<path d="M57.2 46.6V55H54.12V35.4H57.2V43.8H60.7V35.4H63.836V55H60.7V46.6H57.2ZM73.4612 35.4L76.5972 55H73.4892L72.9572 51.444H69.1772L68.6452 55H65.8172L68.9532 35.4H73.4612ZM71.0532 38.872L69.5692 48.784H72.5372L71.0532 38.872ZM84.8636 35.4H87.9436V55H84.8636V47.104C84.1916 47.832 83.0716 48.196 82.2316 48.196C79.7116 48.196 78.3956 46.376 78.3956 43.688V35.4H81.4756V43.436C81.4756 44.752 82.2876 45.368 83.2676 45.368C84.2476 45.368 84.8636 44.668 84.8636 43.352V35.4ZM97.6047 35.4L100.741 55H97.6327L97.1007 51.444H93.3207L92.7887 55H89.9607L93.0967 35.4H97.6047ZM95.1967 38.872L93.7127 48.784H96.6807L95.1967 38.872ZM101.839 38.2V35.4H111.359V38.2H108.139V55H105.059V38.2H101.839ZM117.811 55H113.275V35.4H116.355V42.764H117.811C120.891 42.764 122.403 44.472 122.403 47.608V50.156C122.403 53.292 120.891 55 117.811 55ZM116.355 52.2H117.811C118.791 52.2 119.323 51.752 119.323 50.352V47.412C119.323 46.012 118.791 45.564 117.811 45.564H116.355V52.2ZM135.728 47.692H138.64V50.296C138.64 53.432 137.072 55.224 134.048 55.224C131.024 55.224 129.456 53.432 129.456 50.296V40.104C129.456 36.968 131.024 35.176 134.048 35.176C137.072 35.176 138.64 36.968 138.64 40.104V42.008H135.728V39.908C135.728 38.508 135.112 37.976 134.132 37.976C133.152 37.976 132.536 38.508 132.536 39.908V50.492C132.536 51.892 133.152 52.396 134.132 52.396C135.112 52.396 135.728 51.892 135.728 50.492V47.692ZM150.876 55H146.004V35.4H154.628V38.2H149.084V43.212H150.876C153.956 43.212 155.524 44.92 155.524 48.056V50.156C155.524 53.292 153.956 55 150.876 55ZM149.084 52.2H150.876C151.856 52.2 152.444 51.752 152.444 50.352V47.86C152.444 46.46 151.856 46.012 150.876 46.012H149.084V52.2ZM161.237 38.2V43.66H165.465V46.46H161.237V52.2H166.557V55H158.157V35.4H166.557V38.2H161.237ZM175.046 47.692H177.958V50.296C177.958 53.432 176.39 55.224 173.366 55.224C170.342 55.224 168.774 53.432 168.774 50.296V40.104C168.774 36.968 170.342 35.176 173.366 35.176C176.39 35.176 177.958 36.968 177.958 40.104V42.008H175.046V39.908C175.046 38.508 174.43 37.976 173.45 37.976C172.47 37.976 171.854 38.508 171.854 39.908V50.492C171.854 51.892 172.47 52.396 173.45 52.396C174.43 52.396 175.046 51.892 175.046 50.492V47.692ZM183.467 38.2V55H180.387V35.4H190.103V55H186.967V38.2H183.467ZM192.028 55.028V52.228C193.428 52.228 193.876 52.032 193.932 50.212L194.436 35.4H203.144V55H200.008V38.2H197.32L196.984 50.044C196.872 53.628 195.584 55.028 192.504 55.028H192.028ZM212.894 35.4L216.03 55H212.922L212.39 51.444H208.61L208.078 55H205.25L208.386 35.4H212.894ZM210.486 38.872L209.002 48.784H211.97L210.486 38.872ZM217.128 38.2V35.4H226.648V38.2H223.428V55H220.348V38.2H217.128ZM231.644 46.6V55H228.564V35.4H231.644V43.8H235.144V35.4H238.28V55H235.144V46.6H231.644ZM243.902 39.908V50.492C243.902 51.892 244.518 52.424 245.498 52.424C246.478 52.424 247.094 51.892 247.094 50.492V39.908C247.094 38.508 246.478 37.976 245.498 37.976C244.518 37.976 243.902 38.508 243.902 39.908ZM240.822 50.296V40.104C240.822 36.968 242.474 35.176 245.498 35.176C248.522 35.176 250.174 36.968 250.174 40.104V50.296C250.174 53.432 248.522 55.224 245.498 55.224C242.474 55.224 240.822 53.432 240.822 50.296ZM255.843 55H252.763V35.4H260.883V38.2H255.843V55ZM266.35 39.908V50.492C266.35 51.892 266.966 52.424 267.946 52.424C268.926 52.424 269.542 51.892 269.542 50.492V39.908C269.542 38.508 268.926 37.976 267.946 37.976C266.966 37.976 266.35 38.508 266.35 39.908ZM263.27 50.296V40.104C263.27 36.968 264.922 35.176 267.946 35.176C270.97 35.176 272.622 36.968 272.622 40.104V50.296C272.622 53.432 270.97 55.224 267.946 55.224C264.922 55.224 263.27 53.432 263.27 50.296ZM286.923 35.4L290.059 55H286.951L286.419 51.444H282.639L282.107 55H279.279L282.415 35.4H286.923ZM284.515 38.872L283.031 48.784H285.999L284.515 38.872ZM302.189 35.4L298.885 50.016C298.157 53.544 296.953 55.308 292.669 55.028V52.284C294.237 52.396 295.133 52.116 295.385 50.688L295.413 50.52L291.157 35.4H294.209L295.889 42.092L296.841 46.684L297.569 42.12L298.969 35.4H302.189ZM315.999 57.632H312.947V55H306.367V57.632H303.371V52.256H304.575C305.107 51.584 305.275 50.856 305.331 49.708L306.031 35.4H314.655V52.256H315.999V57.632ZM308.915 38.2L308.355 49.652C308.271 51.136 307.991 51.78 307.487 52.256H311.519V38.2H308.915ZM324.015 46.012L321.439 55H318.275V35.4H321.019V47.804L322.139 43.492L324.659 35.4H328.047V55H325.275V41.196L324.015 46.012ZM329.888 38.2V35.4H339.408V38.2H336.188V55H333.108V38.2H329.888ZM348.157 35.4L351.293 55H348.185L347.653 51.444H343.873L343.341 55H340.513L343.649 35.4H348.157ZM345.749 38.872L344.265 48.784H347.233L345.749 38.872ZM363.298 55V35.4H368.394V37.92H366.378V52.48H368.394V55H363.298ZM387.406 49.12C387.592 48.6347 387.798 48.1867 388.022 47.776C388.246 47.3467 388.498 46.9453 388.778 46.572H373.77V44.276H388.778C388.516 43.9027 388.274 43.5107 388.05 43.1C387.826 42.6707 387.62 42.2133 387.434 41.728H389.562C390.719 43.0907 391.988 44.1267 393.37 44.836V46.04C391.988 46.712 390.719 47.7387 389.562 49.12H387.406ZM403.842 35.4V55H398.746V52.48H400.762V37.92H398.746V35.4H403.842Z" fill="white"/>
</svg>
