<svg width="689" height="90" viewBox="0 0 689 90" fill="none" xmlns="http://www.w3.org/2000/svg">
<rect width="689" height="90" rx="12" fill="white"/>
<path d="M172.2 46.6V55H169.12V35.4H172.2V43.8H175.7V35.4H178.836V55H175.7V46.6H172.2ZM188.461 35.4L191.597 55H188.489L187.957 51.444H184.177L183.645 55H180.817L183.953 35.4H188.461ZM186.053 38.872L184.569 48.784H187.537L186.053 38.872ZM199.864 35.4H202.944V55H199.864V47.104C199.192 47.832 198.072 48.196 197.232 48.196C194.712 48.196 193.396 46.376 193.396 43.688V35.4H196.476V43.436C196.476 44.752 197.288 45.368 198.268 45.368C199.248 45.368 199.864 44.668 199.864 43.352V35.4ZM212.605 35.4L215.741 55H212.633L212.101 51.444H208.321L207.789 55H204.961L208.097 35.4H212.605ZM210.197 38.872L208.713 48.784H211.681L210.197 38.872ZM216.839 38.2V35.4H226.359V38.2H223.139V55H220.059V38.2H216.839ZM232.811 55H228.275V35.4H231.355V42.764H232.811C235.891 42.764 237.403 44.472 237.403 47.608V50.156C237.403 53.292 235.891 55 232.811 55ZM231.355 52.2H232.811C233.791 52.2 234.323 51.752 234.323 50.352V47.412C234.323 46.012 233.791 45.564 232.811 45.564H231.355V52.2ZM250.728 47.692H253.64V50.296C253.64 53.432 252.072 55.224 249.048 55.224C246.024 55.224 244.456 53.432 244.456 50.296V40.104C244.456 36.968 246.024 35.176 249.048 35.176C252.072 35.176 253.64 36.968 253.64 40.104V42.008H250.728V39.908C250.728 38.508 250.112 37.976 249.132 37.976C248.152 37.976 247.536 38.508 247.536 39.908V50.492C247.536 51.892 248.152 52.396 249.132 52.396C250.112 52.396 250.728 51.892 250.728 50.492V47.692ZM265.876 55H261.004V35.4H269.628V38.2H264.084V43.212H265.876C268.956 43.212 270.524 44.92 270.524 48.056V50.156C270.524 53.292 268.956 55 265.876 55ZM264.084 52.2H265.876C266.856 52.2 267.444 51.752 267.444 50.352V47.86C267.444 46.46 266.856 46.012 265.876 46.012H264.084V52.2ZM276.237 38.2V43.66H280.465V46.46H276.237V52.2H281.557V55H273.157V35.4H281.557V38.2H276.237ZM290.046 47.692H292.958V50.296C292.958 53.432 291.39 55.224 288.366 55.224C285.342 55.224 283.774 53.432 283.774 50.296V40.104C283.774 36.968 285.342 35.176 288.366 35.176C291.39 35.176 292.958 36.968 292.958 40.104V42.008H290.046V39.908C290.046 38.508 289.43 37.976 288.45 37.976C287.47 37.976 286.854 38.508 286.854 39.908V50.492C286.854 51.892 287.47 52.396 288.45 52.396C289.43 52.396 290.046 51.892 290.046 50.492V47.692ZM298.467 38.2V55H295.387V35.4H305.103V55H301.967V38.2H298.467ZM307.028 55.028V52.228C308.428 52.228 308.876 52.032 308.932 50.212L309.436 35.4H318.144V55H315.008V38.2H312.32L311.984 50.044C311.872 53.628 310.584 55.028 307.504 55.028H307.028ZM327.894 35.4L331.03 55H327.922L327.39 51.444H323.61L323.078 55H320.25L323.386 35.4H327.894ZM325.486 38.872L324.002 48.784H326.97L325.486 38.872ZM332.128 38.2V35.4H341.648V38.2H338.428V55H335.348V38.2H332.128ZM346.644 46.6V55H343.564V35.4H346.644V43.8H350.144V35.4H353.28V55H350.144V46.6H346.644ZM358.902 39.908V50.492C358.902 51.892 359.518 52.424 360.498 52.424C361.478 52.424 362.094 51.892 362.094 50.492V39.908C362.094 38.508 361.478 37.976 360.498 37.976C359.518 37.976 358.902 38.508 358.902 39.908ZM355.822 50.296V40.104C355.822 36.968 357.474 35.176 360.498 35.176C363.522 35.176 365.174 36.968 365.174 40.104V50.296C365.174 53.432 363.522 55.224 360.498 55.224C357.474 55.224 355.822 53.432 355.822 50.296ZM370.843 55H367.763V35.4H375.883V38.2H370.843V55ZM381.35 39.908V50.492C381.35 51.892 381.966 52.424 382.946 52.424C383.926 52.424 384.542 51.892 384.542 50.492V39.908C384.542 38.508 383.926 37.976 382.946 37.976C381.966 37.976 381.35 38.508 381.35 39.908ZM378.27 50.296V40.104C378.27 36.968 379.922 35.176 382.946 35.176C385.97 35.176 387.622 36.968 387.622 40.104V50.296C387.622 53.432 385.97 55.224 382.946 55.224C379.922 55.224 378.27 53.432 378.27 50.296ZM401.923 35.4L405.059 55H401.951L401.419 51.444H397.639L397.107 55H394.279L397.415 35.4H401.923ZM399.515 38.872L398.031 48.784H400.999L399.515 38.872ZM417.189 35.4L413.885 50.016C413.157 53.544 411.953 55.308 407.669 55.028V52.284C409.237 52.396 410.133 52.116 410.385 50.688L410.413 50.52L406.157 35.4H409.209L410.889 42.092L411.841 46.684L412.569 42.12L413.969 35.4H417.189ZM430.999 57.632H427.947V55H421.367V57.632H418.371V52.256H419.575C420.107 51.584 420.275 50.856 420.331 49.708L421.031 35.4H429.655V52.256H430.999V57.632ZM423.915 38.2L423.355 49.652C423.271 51.136 422.991 51.78 422.487 52.256H426.519V38.2H423.915ZM439.015 46.012L436.439 55H433.275V35.4H436.019V47.804L437.139 43.492L439.659 35.4H443.047V55H440.275V41.196L439.015 46.012ZM444.888 38.2V35.4H454.408V38.2H451.188V55H448.108V38.2H444.888ZM463.157 35.4L466.293 55H463.185L462.653 51.444H458.873L458.341 55H455.513L458.649 35.4H463.157ZM460.749 38.872L459.265 48.784H462.233L460.749 38.872ZM478.298 55V35.4H483.394V37.92H481.378V52.48H483.394V55H478.298ZM502.406 49.12C502.592 48.6347 502.798 48.1867 503.022 47.776C503.246 47.3467 503.498 46.9453 503.778 46.572H488.77V44.276H503.778C503.516 43.9027 503.274 43.5107 503.05 43.1C502.826 42.6707 502.62 42.2133 502.434 41.728H504.562C505.719 43.0907 506.988 44.1267 508.37 44.836V46.04C506.988 46.712 505.719 47.7387 504.562 49.12H502.406ZM518.842 35.4V55H513.746V52.48H515.762V37.92H513.746V35.4H518.842Z" fill="#404850"/>
</svg>
