<svg width="461" height="90" viewBox="0 0 461 90" fill="none" xmlns="http://www.w3.org/2000/svg">
<rect width="461" height="90" rx="8" fill="#FD4C38"/>
<path d="M123.448 39.908V50.492C123.448 51.892 124.064 52.424 125.044 52.424C126.024 52.424 126.64 51.892 126.64 50.492V39.908C126.64 38.508 126.024 37.976 125.044 37.976C124.064 37.976 123.448 38.508 123.448 39.908ZM120.368 50.296V40.104C120.368 36.968 122.02 35.176 125.044 35.176C128.068 35.176 129.72 36.968 129.72 40.104V50.296C129.72 53.432 128.068 55.224 125.044 55.224C122.02 55.224 120.368 53.432 120.368 50.296ZM138.302 47.692H141.214V50.296C141.214 53.432 139.646 55.224 136.622 55.224C133.598 55.224 132.03 53.432 132.03 50.296V40.104C132.03 36.968 133.598 35.176 136.622 35.176C139.646 35.176 141.214 36.968 141.214 40.104V42.008H138.302V39.908C138.302 38.508 137.686 37.976 136.706 37.976C135.726 37.976 135.11 38.508 135.11 39.908V50.492C135.11 51.892 135.726 52.396 136.706 52.396C137.686 52.396 138.302 51.892 138.302 50.492V47.692ZM142.746 38.2V35.4H152.266V38.2H149.046V55H145.966V38.2H142.746ZM161.015 35.4L164.151 55H161.043L160.511 51.444H156.731L156.199 55H153.371L156.507 35.4H161.015ZM158.607 38.872L157.123 48.784H160.091L158.607 38.872ZM170.793 35.4C173.985 35.4 175.357 36.884 175.357 39.908V40.608C175.357 42.624 174.741 43.912 173.369 44.556C175.021 45.2 175.665 46.684 175.665 48.756V50.352C175.665 53.376 174.069 55 170.989 55H166.145V35.4H170.793ZM170.597 46.18H169.225V52.2H170.989C172.025 52.2 172.585 51.724 172.585 50.268V48.56C172.585 46.74 171.997 46.18 170.597 46.18ZM170.709 38.2H169.225V43.38H170.429C171.577 43.38 172.277 42.876 172.277 41.308V40.216C172.277 38.816 171.801 38.2 170.709 38.2ZM183.82 46.012L181.244 55H178.08V35.4H180.824V47.804L181.944 43.492L184.464 35.4H187.852V55H185.08V41.196L183.82 46.012ZM189.693 38.2V35.4H199.213V38.2H195.993V55H192.913V38.2H189.693ZM205.666 55H201.13V35.4H204.21V42.764H205.666C208.746 42.764 210.258 44.472 210.258 47.608V50.156C210.258 53.292 208.746 55 205.666 55ZM204.21 52.2H205.666C206.646 52.2 207.178 51.752 207.178 50.352V47.412C207.178 46.012 206.646 45.564 205.666 45.564H204.21V52.2ZM223.498 41.308V40.216C223.498 38.452 222.882 37.976 221.902 37.976C220.922 37.976 220.278 38.508 220.278 39.908V41.504H217.45V40.048C217.45 36.912 218.962 35.176 221.986 35.176C225.01 35.176 226.578 36.968 226.578 40.104V40.608C226.578 42.708 225.906 44.024 224.422 44.64C225.962 45.312 226.578 46.768 226.578 48.756V50.296C226.578 53.432 225.01 55.224 221.986 55.224C218.962 55.224 217.394 53.432 217.394 50.296V48.14H220.306V50.492C220.306 51.892 220.922 52.424 221.902 52.424C222.882 52.424 223.498 51.948 223.498 50.212V48.672C223.498 46.852 222.882 46.18 221.482 46.18H220.726V43.38H221.65C222.798 43.38 223.498 42.876 223.498 41.308ZM236.056 35.4L239.192 55H236.084L235.552 51.444H231.772L231.24 55H228.412L231.548 35.4H236.056ZM233.648 38.872L232.164 48.784H235.132L233.648 38.872ZM243.762 55H240.626C240.934 54.272 240.962 53.572 240.962 52.62V49.596C240.962 47.552 241.466 46.068 243.006 45.424C241.634 44.78 240.99 43.464 240.99 41.448V39.908C240.99 36.884 242.362 35.4 245.554 35.4H250.202V55H247.122V47.02H246.058C244.658 47.02 244.042 47.692 244.042 49.512V52.592C244.042 54.188 243.93 54.496 243.762 55ZM247.122 38.2H245.638C244.546 38.2 244.07 38.816 244.07 40.216V42.148C244.07 43.716 244.77 44.22 245.918 44.22H247.122V38.2ZM257.66 35.4C260.852 35.4 262.224 36.884 262.224 39.908V40.608C262.224 42.624 261.608 43.912 260.236 44.556C261.888 45.2 262.532 46.684 262.532 48.756V50.352C262.532 53.376 260.936 55 257.856 55H253.012V35.4H257.66ZM257.464 46.18H256.092V52.2H257.856C258.892 52.2 259.452 51.724 259.452 50.268V48.56C259.452 46.74 258.864 46.18 257.464 46.18ZM257.576 38.2H256.092V43.38H257.296C258.444 43.38 259.144 42.876 259.144 41.308V40.216C259.144 38.816 258.668 38.2 257.576 38.2ZM271.975 55L268.979 47.188L268.027 48.98V55H264.947V35.4H268.027V43.94L272.059 35.4H275.139L270.855 44.136L275.139 55H271.975ZM287.237 35.4L283.933 50.016C283.205 53.544 282.001 55.308 277.717 55.028V52.284C279.285 52.396 280.181 52.116 280.433 50.688L280.461 50.52L276.205 35.4H279.257L280.937 42.092L281.889 46.684L282.617 42.12L284.017 35.4H287.237ZM299.102 55V35.4H304.198V37.92H302.182V52.48H304.198V55H299.102ZM323.209 49.12C323.396 48.6347 323.601 48.1867 323.825 47.776C324.049 47.3467 324.301 46.9453 324.581 46.572H309.573V44.276H324.581C324.32 43.9027 324.077 43.5107 323.853 43.1C323.629 42.6707 323.424 42.2133 323.237 41.728H325.365C326.522 43.0907 327.792 44.1267 329.173 44.836V46.04C327.792 46.712 326.522 47.7387 325.365 49.12H323.209ZM339.645 35.4V55H334.549V52.48H336.565V37.92H334.549V35.4H339.645Z" fill="white"/>
</svg>
