<svg width="729" height="90" viewBox="0 0 729 90" fill="none" xmlns="http://www.w3.org/2000/svg">
<rect width="729" height="90" rx="12" fill="white"/>
<path d="M192.2 46.6V55H189.12V35.4H192.2V43.8H195.7V35.4H198.836V55H195.7V46.6H192.2ZM208.461 35.4L211.597 55H208.489L207.957 51.444H204.177L203.645 55H200.817L203.953 35.4H208.461ZM206.053 38.872L204.569 48.784H207.537L206.053 38.872ZM219.864 35.4H222.944V55H219.864V47.104C219.192 47.832 218.072 48.196 217.232 48.196C214.712 48.196 213.396 46.376 213.396 43.688V35.4H216.476V43.436C216.476 44.752 217.288 45.368 218.268 45.368C219.248 45.368 219.864 44.668 219.864 43.352V35.4ZM232.605 35.4L235.741 55H232.633L232.101 51.444H228.321L227.789 55H224.961L228.097 35.4H232.605ZM230.197 38.872L228.713 48.784H231.681L230.197 38.872ZM236.839 38.2V35.4H246.359V38.2H243.139V55H240.059V38.2H236.839ZM252.811 55H248.275V35.4H251.355V42.764H252.811C255.891 42.764 257.403 44.472 257.403 47.608V50.156C257.403 53.292 255.891 55 252.811 55ZM251.355 52.2H252.811C253.791 52.2 254.323 51.752 254.323 50.352V47.412C254.323 46.012 253.791 45.564 252.811 45.564H251.355V52.2ZM270.728 47.692H273.64V50.296C273.64 53.432 272.072 55.224 269.048 55.224C266.024 55.224 264.456 53.432 264.456 50.296V40.104C264.456 36.968 266.024 35.176 269.048 35.176C272.072 35.176 273.64 36.968 273.64 40.104V42.008H270.728V39.908C270.728 38.508 270.112 37.976 269.132 37.976C268.152 37.976 267.536 38.508 267.536 39.908V50.492C267.536 51.892 268.152 52.396 269.132 52.396C270.112 52.396 270.728 51.892 270.728 50.492V47.692ZM285.876 55H281.004V35.4H289.628V38.2H284.084V43.212H285.876C288.956 43.212 290.524 44.92 290.524 48.056V50.156C290.524 53.292 288.956 55 285.876 55ZM284.084 52.2H285.876C286.856 52.2 287.444 51.752 287.444 50.352V47.86C287.444 46.46 286.856 46.012 285.876 46.012H284.084V52.2ZM296.237 38.2V43.66H300.465V46.46H296.237V52.2H301.557V55H293.157V35.4H301.557V38.2H296.237ZM310.046 47.692H312.958V50.296C312.958 53.432 311.39 55.224 308.366 55.224C305.342 55.224 303.774 53.432 303.774 50.296V40.104C303.774 36.968 305.342 35.176 308.366 35.176C311.39 35.176 312.958 36.968 312.958 40.104V42.008H310.046V39.908C310.046 38.508 309.43 37.976 308.45 37.976C307.47 37.976 306.854 38.508 306.854 39.908V50.492C306.854 51.892 307.47 52.396 308.45 52.396C309.43 52.396 310.046 51.892 310.046 50.492V47.692ZM318.467 38.2V55H315.387V35.4H325.103V55H321.967V38.2H318.467ZM327.028 55.028V52.228C328.428 52.228 328.876 52.032 328.932 50.212L329.436 35.4H338.144V55H335.008V38.2H332.32L331.984 50.044C331.872 53.628 330.584 55.028 327.504 55.028H327.028ZM347.894 35.4L351.03 55H347.922L347.39 51.444H343.61L343.078 55H340.25L343.386 35.4H347.894ZM345.486 38.872L344.002 48.784H346.97L345.486 38.872ZM352.128 38.2V35.4H361.648V38.2H358.428V55H355.348V38.2H352.128ZM366.644 46.6V55H363.564V35.4H366.644V43.8H370.144V35.4H373.28V55H370.144V46.6H366.644ZM378.902 39.908V50.492C378.902 51.892 379.518 52.424 380.498 52.424C381.478 52.424 382.094 51.892 382.094 50.492V39.908C382.094 38.508 381.478 37.976 380.498 37.976C379.518 37.976 378.902 38.508 378.902 39.908ZM375.822 50.296V40.104C375.822 36.968 377.474 35.176 380.498 35.176C383.522 35.176 385.174 36.968 385.174 40.104V50.296C385.174 53.432 383.522 55.224 380.498 55.224C377.474 55.224 375.822 53.432 375.822 50.296ZM390.843 55H387.763V35.4H395.883V38.2H390.843V55ZM401.35 39.908V50.492C401.35 51.892 401.966 52.424 402.946 52.424C403.926 52.424 404.542 51.892 404.542 50.492V39.908C404.542 38.508 403.926 37.976 402.946 37.976C401.966 37.976 401.35 38.508 401.35 39.908ZM398.27 50.296V40.104C398.27 36.968 399.922 35.176 402.946 35.176C405.97 35.176 407.622 36.968 407.622 40.104V50.296C407.622 53.432 405.97 55.224 402.946 55.224C399.922 55.224 398.27 53.432 398.27 50.296ZM421.923 35.4L425.059 55H421.951L421.419 51.444H417.639L417.107 55H414.279L417.415 35.4H421.923ZM419.515 38.872L418.031 48.784H420.999L419.515 38.872ZM437.189 35.4L433.885 50.016C433.157 53.544 431.953 55.308 427.669 55.028V52.284C429.237 52.396 430.133 52.116 430.385 50.688L430.413 50.52L426.157 35.4H429.209L430.889 42.092L431.841 46.684L432.569 42.12L433.969 35.4H437.189ZM450.999 57.632H447.947V55H441.367V57.632H438.371V52.256H439.575C440.107 51.584 440.275 50.856 440.331 49.708L441.031 35.4H449.655V52.256H450.999V57.632ZM443.915 38.2L443.355 49.652C443.271 51.136 442.991 51.78 442.487 52.256H446.519V38.2H443.915ZM459.015 46.012L456.439 55H453.275V35.4H456.019V47.804L457.139 43.492L459.659 35.4H463.047V55H460.275V41.196L459.015 46.012ZM464.888 38.2V35.4H474.408V38.2H471.188V55H468.108V38.2H464.888ZM483.157 35.4L486.293 55H483.185L482.653 51.444H478.873L478.341 55H475.513L478.649 35.4H483.157ZM480.749 38.872L479.265 48.784H482.233L480.749 38.872ZM498.298 55V35.4H503.394V37.92H501.378V52.48H503.394V55H498.298ZM522.406 49.12C522.592 48.6347 522.798 48.1867 523.022 47.776C523.246 47.3467 523.498 46.9453 523.778 46.572H508.77V44.276H523.778C523.516 43.9027 523.274 43.5107 523.05 43.1C522.826 42.6707 522.62 42.2133 522.434 41.728H524.562C525.719 43.0907 526.988 44.1267 528.37 44.836V46.04C526.988 46.712 525.719 47.7387 524.562 49.12H522.406ZM538.842 35.4V55H533.746V52.48H535.762V37.92H533.746V35.4H538.842Z" fill="#404448"/>
</svg>
