<svg width="168" height="60" viewBox="0 0 168 60" fill="none" xmlns="http://www.w3.org/2000/svg">
<path d="M8 1H160C163.866 1 167 4.13401 167 8V52C167 55.866 163.866 59 160 59H8C4.13401 59 1 55.866 1 52V8C1 4.13401 4.13401 1 8 1Z" stroke="#C8D1D8" stroke-width="2"/>
<path d="M44.608 21.7L46.552 33.628L48.352 21.7H52.024V38.5H49.528V26.452L47.704 38.5H45.208L43.24 26.62V38.5H40.936V21.7H44.608ZM57.0644 24.1V28.78H60.6884V31.18H57.0644V36.1H61.6244V38.5H54.4244V21.7H61.6244V24.1H57.0644ZM66.3803 31.3V38.5H63.7403V21.7H66.3803V28.9H69.3803V21.7H72.0683V38.5H69.3803V31.3H66.3803ZM79.0705 34.468V31.3H77.1025V38.5H74.4625V21.7H77.1025V28.9H79.0705V25.732C79.0705 23.044 80.4865 21.508 83.0785 21.508C85.6705 21.508 87.0865 23.044 87.0865 25.732V34.468C87.0865 37.156 85.6705 38.692 83.0785 38.692C80.4865 38.692 79.0705 37.156 79.0705 34.468ZM81.7105 25.564V34.636C81.7105 35.836 82.2385 36.292 83.0785 36.292C83.9185 36.292 84.4465 35.836 84.4465 34.636V25.564C84.4465 24.364 83.9185 23.908 83.0785 23.908C82.2385 23.908 81.7105 24.364 81.7105 25.564Z" fill="#404850"/>
<line x1="98" y1="26.75" x2="128" y2="26.75" stroke="#8B97A4" stroke-width="1.5"/>
<line x1="98" y1="31.75" x2="128" y2="31.75" stroke="#8B97A4" stroke-width="1.5"/>
</svg>
