<svg width="506" height="90" viewBox="0 0 506 90" fill="none" xmlns="http://www.w3.org/2000/svg">
<rect width="506" height="90" rx="12" fill="#FD4C38"/>
<path d="M140.392 35.4H143.472V55H140.392V47.104C139.72 47.832 138.6 48.196 137.76 48.196C135.24 48.196 133.924 46.376 133.924 43.688V35.4H137.004V43.436C137.004 44.752 137.816 45.368 138.796 45.368C139.776 45.368 140.392 44.668 140.392 43.352V35.4ZM152.041 46.012L149.465 55H146.301V35.4H149.045V47.804L150.165 43.492L152.685 35.4H156.073V55H153.301V41.196L152.041 46.012ZM157.914 38.2V35.4H167.434V38.2H164.214V55H161.134V38.2H157.914ZM176.183 35.4L179.319 55H176.211L175.679 51.444H171.899L171.367 55H168.539L171.675 35.4H176.183ZM173.775 38.872L172.291 48.784H175.259L173.775 38.872ZM180.417 38.2V35.4H189.937V38.2H186.717V55H183.637V38.2H180.417ZM196.39 55H191.854V35.4H194.934V42.764H196.39C199.47 42.764 200.982 44.472 200.982 47.608V50.156C200.982 53.292 199.47 55 196.39 55ZM194.934 52.2H196.39C197.37 52.2 197.902 51.752 197.902 50.352V47.412C197.902 46.012 197.37 45.564 196.39 45.564H194.934V52.2ZM211.366 38.2V55H208.286V35.4H218.002V55H214.866V38.2H211.366ZM223.623 39.908V50.492C223.623 51.892 224.239 52.424 225.219 52.424C226.199 52.424 226.815 51.892 226.815 50.492V39.908C226.815 38.508 226.199 37.976 225.219 37.976C224.239 37.976 223.623 38.508 223.623 39.908ZM220.543 50.296V40.104C220.543 36.968 222.195 35.176 225.219 35.176C228.243 35.176 229.895 36.968 229.895 40.104V50.296C229.895 53.432 228.243 55.224 225.219 55.224C222.195 55.224 220.543 53.432 220.543 50.296ZM231.589 55.028V52.228C232.989 52.228 233.437 52.032 233.493 50.212L233.997 35.4H242.705V55H239.569V38.2H236.881L236.545 50.044C236.433 53.628 235.145 55.028 232.065 55.028H231.589ZM248.702 46.6V55H245.622V35.4H248.702V43.8H252.202V35.4H255.338V55H252.202V46.6H248.702ZM260.96 39.908V50.492C260.96 51.892 261.576 52.424 262.556 52.424C263.536 52.424 264.152 51.892 264.152 50.492V39.908C264.152 38.508 263.536 37.976 262.556 37.976C261.576 37.976 260.96 38.508 260.96 39.908ZM257.88 50.296V40.104C257.88 36.968 259.532 35.176 262.556 35.176C265.58 35.176 267.232 36.968 267.232 40.104V50.296C267.232 53.432 265.58 55.224 262.556 55.224C259.532 55.224 257.88 53.432 257.88 50.296ZM275.813 47.692H278.725V50.296C278.725 53.432 277.157 55.224 274.133 55.224C271.109 55.224 269.541 53.432 269.541 50.296V40.104C269.541 36.968 271.109 35.176 274.133 35.176C277.157 35.176 278.725 36.968 278.725 40.104V42.008H275.813V39.908C275.813 38.508 275.197 37.976 274.217 37.976C273.237 37.976 272.621 38.508 272.621 39.908V50.492C272.621 51.892 273.237 52.396 274.217 52.396C275.197 52.396 275.813 51.892 275.813 50.492V47.692ZM280.258 38.2V35.4H289.778V38.2H286.558V55H283.478V38.2H280.258ZM296.23 55H291.694V35.4H294.774V42.764H296.23C299.31 42.764 300.822 44.472 300.822 47.608V50.156C300.822 53.292 299.31 55 296.23 55ZM294.774 52.2H296.23C297.21 52.2 297.742 51.752 297.742 50.352V47.412C297.742 46.012 297.21 45.564 296.23 45.564H294.774V52.2ZM308.595 50.296V46.6H306.299V55H303.219V35.4H306.299V43.8H308.595V40.104C308.595 36.968 310.247 35.176 313.271 35.176C316.295 35.176 317.947 36.968 317.947 40.104V50.296C317.947 53.432 316.295 55.224 313.271 55.224C310.247 55.224 308.595 53.432 308.595 50.296ZM311.675 39.908V50.492C311.675 51.892 312.291 52.424 313.271 52.424C314.251 52.424 314.867 51.892 314.867 50.492V39.908C314.867 38.508 314.251 37.976 313.271 37.976C312.291 37.976 311.675 38.508 311.675 39.908ZM330.552 55V35.4H335.648V37.92H333.632V52.48H335.648V55H330.552ZM354.66 49.12C354.846 48.6347 355.052 48.1867 355.276 47.776C355.5 47.3467 355.752 46.9453 356.032 46.572H341.024V44.276H356.032C355.77 43.9027 355.528 43.5107 355.304 43.1C355.08 42.6707 354.874 42.2133 354.688 41.728H356.816C357.973 43.0907 359.242 44.1267 360.624 44.836V46.04C359.242 46.712 357.973 47.7387 356.816 49.12H354.66ZM371.096 35.4V55H366V52.48H368.016V37.92H366V35.4H371.096Z" fill="white"/>
</svg>
