<svg width="720" height="90" viewBox="0 0 720 90" fill="none" xmlns="http://www.w3.org/2000/svg">
<rect width="720" height="90" rx="12" fill="#FD4C38"/>
<path d="M187.7 46.6V55H184.62V35.4H187.7V43.8H191.2V35.4H194.336V55H191.2V46.6H187.7ZM203.961 35.4L207.097 55H203.989L203.457 51.444H199.677L199.145 55H196.317L199.453 35.4H203.961ZM201.553 38.872L200.069 48.784H203.037L201.553 38.872ZM215.364 35.4H218.444V55H215.364V47.104C214.692 47.832 213.572 48.196 212.732 48.196C210.212 48.196 208.896 46.376 208.896 43.688V35.4H211.976V43.436C211.976 44.752 212.788 45.368 213.768 45.368C214.748 45.368 215.364 44.668 215.364 43.352V35.4ZM228.105 35.4L231.241 55H228.133L227.601 51.444H223.821L223.289 55H220.461L223.597 35.4H228.105ZM225.697 38.872L224.213 48.784H227.181L225.697 38.872ZM232.339 38.2V35.4H241.859V38.2H238.639V55H235.559V38.2H232.339ZM248.311 55H243.775V35.4H246.855V42.764H248.311C251.391 42.764 252.903 44.472 252.903 47.608V50.156C252.903 53.292 251.391 55 248.311 55ZM246.855 52.2H248.311C249.291 52.2 249.823 51.752 249.823 50.352V47.412C249.823 46.012 249.291 45.564 248.311 45.564H246.855V52.2ZM266.228 47.692H269.14V50.296C269.14 53.432 267.572 55.224 264.548 55.224C261.524 55.224 259.956 53.432 259.956 50.296V40.104C259.956 36.968 261.524 35.176 264.548 35.176C267.572 35.176 269.14 36.968 269.14 40.104V42.008H266.228V39.908C266.228 38.508 265.612 37.976 264.632 37.976C263.652 37.976 263.036 38.508 263.036 39.908V50.492C263.036 51.892 263.652 52.396 264.632 52.396C265.612 52.396 266.228 51.892 266.228 50.492V47.692ZM281.376 55H276.504V35.4H285.128V38.2H279.584V43.212H281.376C284.456 43.212 286.024 44.92 286.024 48.056V50.156C286.024 53.292 284.456 55 281.376 55ZM279.584 52.2H281.376C282.356 52.2 282.944 51.752 282.944 50.352V47.86C282.944 46.46 282.356 46.012 281.376 46.012H279.584V52.2ZM291.737 38.2V43.66H295.965V46.46H291.737V52.2H297.057V55H288.657V35.4H297.057V38.2H291.737ZM305.546 47.692H308.458V50.296C308.458 53.432 306.89 55.224 303.866 55.224C300.842 55.224 299.274 53.432 299.274 50.296V40.104C299.274 36.968 300.842 35.176 303.866 35.176C306.89 35.176 308.458 36.968 308.458 40.104V42.008H305.546V39.908C305.546 38.508 304.93 37.976 303.95 37.976C302.97 37.976 302.354 38.508 302.354 39.908V50.492C302.354 51.892 302.97 52.396 303.95 52.396C304.93 52.396 305.546 51.892 305.546 50.492V47.692ZM313.967 38.2V55H310.887V35.4H320.603V55H317.467V38.2H313.967ZM322.528 55.028V52.228C323.928 52.228 324.376 52.032 324.432 50.212L324.936 35.4H333.644V55H330.508V38.2H327.82L327.484 50.044C327.372 53.628 326.084 55.028 323.004 55.028H322.528ZM343.394 35.4L346.53 55H343.422L342.89 51.444H339.11L338.578 55H335.75L338.886 35.4H343.394ZM340.986 38.872L339.502 48.784H342.47L340.986 38.872ZM347.628 38.2V35.4H357.148V38.2H353.928V55H350.848V38.2H347.628ZM362.144 46.6V55H359.064V35.4H362.144V43.8H365.644V35.4H368.78V55H365.644V46.6H362.144ZM374.402 39.908V50.492C374.402 51.892 375.018 52.424 375.998 52.424C376.978 52.424 377.594 51.892 377.594 50.492V39.908C377.594 38.508 376.978 37.976 375.998 37.976C375.018 37.976 374.402 38.508 374.402 39.908ZM371.322 50.296V40.104C371.322 36.968 372.974 35.176 375.998 35.176C379.022 35.176 380.674 36.968 380.674 40.104V50.296C380.674 53.432 379.022 55.224 375.998 55.224C372.974 55.224 371.322 53.432 371.322 50.296ZM386.343 55H383.263V35.4H391.383V38.2H386.343V55ZM396.85 39.908V50.492C396.85 51.892 397.466 52.424 398.446 52.424C399.426 52.424 400.042 51.892 400.042 50.492V39.908C400.042 38.508 399.426 37.976 398.446 37.976C397.466 37.976 396.85 38.508 396.85 39.908ZM393.77 50.296V40.104C393.77 36.968 395.422 35.176 398.446 35.176C401.47 35.176 403.122 36.968 403.122 40.104V50.296C403.122 53.432 401.47 55.224 398.446 55.224C395.422 55.224 393.77 53.432 393.77 50.296ZM417.423 35.4L420.559 55H417.451L416.919 51.444H413.139L412.607 55H409.779L412.915 35.4H417.423ZM415.015 38.872L413.531 48.784H416.499L415.015 38.872ZM432.689 35.4L429.385 50.016C428.657 53.544 427.453 55.308 423.169 55.028V52.284C424.737 52.396 425.633 52.116 425.885 50.688L425.913 50.52L421.657 35.4H424.709L426.389 42.092L427.341 46.684L428.069 42.12L429.469 35.4H432.689ZM446.499 57.632H443.447V55H436.867V57.632H433.871V52.256H435.075C435.607 51.584 435.775 50.856 435.831 49.708L436.531 35.4H445.155V52.256H446.499V57.632ZM439.415 38.2L438.855 49.652C438.771 51.136 438.491 51.78 437.987 52.256H442.019V38.2H439.415ZM454.515 46.012L451.939 55H448.775V35.4H451.519V47.804L452.639 43.492L455.159 35.4H458.547V55H455.775V41.196L454.515 46.012ZM460.388 38.2V35.4H469.908V38.2H466.688V55H463.608V38.2H460.388ZM478.657 35.4L481.793 55H478.685L478.153 51.444H474.373L473.841 55H471.013L474.149 35.4H478.657ZM476.249 38.872L474.765 48.784H477.733L476.249 38.872ZM493.798 55V35.4H498.894V37.92H496.878V52.48H498.894V55H493.798ZM517.906 49.12C518.092 48.6347 518.298 48.1867 518.522 47.776C518.746 47.3467 518.998 46.9453 519.278 46.572H504.27V44.276H519.278C519.016 43.9027 518.774 43.5107 518.55 43.1C518.326 42.6707 518.12 42.2133 517.934 41.728H520.062C521.219 43.0907 522.488 44.1267 523.87 44.836V46.04C522.488 46.712 521.219 47.7387 520.062 49.12H517.906ZM534.342 35.4V55H529.246V52.48H531.262V37.92H529.246V35.4H534.342Z" fill="white"/>
</svg>
