<svg width="84" height="15" viewBox="0 0 84 15" fill="none" xmlns="http://www.w3.org/2000/svg">
<path d="M4.36031 4.38016V3.60016C4.36031 2.34016 3.92031 2.00016 3.22031 2.00016C2.52031 2.00016 2.06031 2.38016 2.06031 3.38016V4.52016H0.0403125V3.48016C0.0403125 1.24016 1.12031 0.000156164 3.28031 0.000156164C5.44031 0.000156164 6.56031 1.28016 6.56031 3.52016V3.88016C6.56031 5.38016 6.08031 6.32016 5.02031 6.76016C6.12031 7.24016 6.56031 8.28016 6.56031 9.70016V10.8002C6.56031 13.0402 5.44031 14.3202 3.28031 14.3202C1.12031 14.3202 0.000312537 13.0402 0.000312537 10.8002V9.26016H2.08031V10.9402C2.08031 11.9402 2.52031 12.3202 3.22031 12.3202C3.92031 12.3202 4.36031 11.9802 4.36031 10.7402V9.64016C4.36031 8.34016 3.92031 7.86016 2.92031 7.86016H2.38031V5.86016H3.04031C3.86031 5.86016 4.36031 5.50016 4.36031 4.38016ZM13.33 0.160155L15.57 14.1602H13.35L12.97 11.6202H10.27L9.89 14.1602H7.87L10.11 0.160155H13.33ZM11.61 2.64016L10.55 9.72016H12.67L11.61 2.64016ZM18.8345 14.1602H16.5945C16.8145 13.6402 16.8345 13.1402 16.8345 12.4602V10.3002C16.8345 8.84016 17.1945 7.78016 18.2945 7.32016C17.3145 6.86016 16.8545 5.92016 16.8545 4.48016V3.38016C16.8545 1.22016 17.8345 0.160155 20.1145 0.160155H23.4345V14.1602H21.2345V8.46016H20.4745C19.4745 8.46016 19.0345 8.94016 19.0345 10.2402V12.4402C19.0345 13.5802 18.9545 13.8002 18.8345 14.1602ZM21.2345 2.16016H20.1745C19.3945 2.16016 19.0545 2.60016 19.0545 3.60016V4.98016C19.0545 6.10016 19.5545 6.46016 20.3745 6.46016H21.2345V2.16016ZM28.7614 0.160155C31.0414 0.160155 32.0214 1.22016 32.0214 3.38016V3.88016C32.0214 5.32016 31.5814 6.24016 30.6014 6.70016C31.7814 7.16016 32.2414 8.22016 32.2414 9.70016V10.8402C32.2414 13.0002 31.1014 14.1602 28.9014 14.1602H25.4414V0.160155H28.7614ZM28.6214 7.86016H27.6414V12.1602H28.9014C29.6414 12.1602 30.0414 11.8202 30.0414 10.7802V9.56016C30.0414 8.26016 29.6214 7.86016 28.6214 7.86016ZM28.7014 2.16016H27.6414V5.86016H28.5014C29.3214 5.86016 29.8214 5.50016 29.8214 4.38016V3.60016C29.8214 2.60016 29.4814 2.16016 28.7014 2.16016ZM38.9864 14.1602L36.8464 8.58016L36.1664 9.86016V14.1602H33.9664V0.160155H36.1664V6.26016L39.0464 0.160155H41.2464L38.1864 6.40016L41.2464 14.1602H38.9864ZM47.5277 0.160155L49.7677 14.1602H47.5477L47.1677 11.6202H44.4677L44.0877 14.1602H42.0677L44.3077 0.160155H47.5277ZM45.8077 2.64016L44.7477 9.72016H46.8677L45.8077 2.64016ZM54.8377 14.1602V0.160155H58.4777V1.96016H57.0377V12.3602H58.4777V14.1602H54.8377ZM72.0572 9.96016C72.1905 9.61349 72.3372 9.29349 72.4972 9.00016C72.6572 8.69349 72.8372 8.40682 73.0372 8.14016H62.3172V6.50016H73.0372C72.8505 6.23349 72.6772 5.95349 72.5172 5.66016C72.3572 5.35349 72.2105 5.02682 72.0772 4.68016H73.5972C74.4239 5.65349 75.3305 6.39349 76.3172 6.90016V7.76016C75.3305 8.24016 74.4239 8.97349 73.5972 9.96016H72.0572ZM83.7972 0.160155V14.1602H80.1572V12.3602H81.5972V1.96016H80.1572V0.160155H83.7972Z" fill="white"/>
</svg>
