<svg width="270" height="60" viewBox="0 0 270 60" fill="none" xmlns="http://www.w3.org/2000/svg">
<path d="M0 8C0 3.58172 3.58172 0 8 0H262C266.418 0 270 3.58172 270 8V52C270 56.4183 266.418 60 262 60H8C3.58173 60 0 56.4183 0 52V8Z" fill="#FD4C38"/>
<path d="M43.384 25.564V34.636C43.384 35.836 43.912 36.292 44.752 36.292C45.592 36.292 46.12 35.836 46.12 34.636V25.564C46.12 24.364 45.592 23.908 44.752 23.908C43.912 23.908 43.384 24.364 43.384 25.564ZM40.744 34.468V25.732C40.744 23.044 42.16 21.508 44.752 21.508C47.344 21.508 48.76 23.044 48.76 25.732V34.468C48.76 37.156 47.344 38.692 44.752 38.692C42.16 38.692 40.744 37.156 40.744 34.468ZM56.1156 32.236H58.6116V34.468C58.6116 37.156 57.2676 38.692 54.6756 38.692C52.0836 38.692 50.7396 37.156 50.7396 34.468V25.732C50.7396 23.044 52.0836 21.508 54.6756 21.508C57.2676 21.508 58.6116 23.044 58.6116 25.732V27.364H56.1156V25.564C56.1156 24.364 55.5876 23.908 54.7476 23.908C53.9076 23.908 53.3796 24.364 53.3796 25.564V34.636C53.3796 35.836 53.9076 36.268 54.7476 36.268C55.5876 36.268 56.1156 35.836 56.1156 34.636V32.236ZM59.9254 24.1V21.7H68.0854V24.1H65.3254V38.5H62.6854V24.1H59.9254ZM75.5841 21.7L78.2721 38.5H75.6081L75.1521 35.452H71.9121L71.4561 38.5H69.0321L71.7201 21.7H75.5841ZM73.5201 24.676L72.2481 33.172H74.7921L73.5201 24.676ZM83.9656 21.7C86.7016 21.7 87.8776 22.972 87.8776 25.564V26.164C87.8776 27.892 87.3496 28.996 86.1736 29.548C87.5896 30.1 88.1416 31.372 88.1416 33.148V34.516C88.1416 37.108 86.7736 38.5 84.1336 38.5H79.9816V21.7H83.9656ZM83.7976 30.94H82.6216V36.1H84.1336C85.0216 36.1 85.5016 35.692 85.5016 34.444V32.98C85.5016 31.42 84.9976 30.94 83.7976 30.94ZM83.8936 24.1H82.6216V28.54H83.6536C84.6376 28.54 85.2376 28.108 85.2376 26.764V25.828C85.2376 24.628 84.8296 24.1 83.8936 24.1ZM95.1316 30.796L92.9236 38.5H90.2116V21.7H92.5636V32.332L93.5236 28.636L95.6836 21.7H98.5876V38.5H96.2116V26.668L95.1316 30.796ZM100.166 24.1V21.7H108.326V24.1H105.566V38.5H102.926V24.1H100.166ZM113.856 38.5H109.968V21.7H112.608V28.012H113.856C116.496 28.012 117.792 29.476 117.792 32.164V34.348C117.792 37.036 116.496 38.5 113.856 38.5ZM112.608 36.1H113.856C114.696 36.1 115.152 35.716 115.152 34.516V31.996C115.152 30.796 114.696 30.412 113.856 30.412H112.608V36.1ZM129.141 26.764V25.828C129.141 24.316 128.613 23.908 127.773 23.908C126.933 23.908 126.381 24.364 126.381 25.564V26.932H123.957V25.684C123.957 22.996 125.253 21.508 127.845 21.508C130.437 21.508 131.781 23.044 131.781 25.732V26.164C131.781 27.964 131.205 29.092 129.933 29.62C131.253 30.196 131.781 31.444 131.781 33.148V34.468C131.781 37.156 130.437 38.692 127.845 38.692C125.253 38.692 123.909 37.156 123.909 34.468V32.62H126.405V34.636C126.405 35.836 126.933 36.292 127.773 36.292C128.613 36.292 129.141 35.884 129.141 34.396V33.076C129.141 31.516 128.613 30.94 127.413 30.94H126.765V28.54H127.557C128.541 28.54 129.141 28.108 129.141 26.764ZM139.905 21.7L142.593 38.5H139.929L139.473 35.452H136.233L135.777 38.5H133.353L136.041 21.7H139.905ZM137.841 24.676L136.569 33.172H139.113L137.841 24.676ZM146.51 38.5H143.822C144.086 37.876 144.11 37.276 144.11 36.46V33.868C144.11 32.116 144.542 30.844 145.862 30.292C144.686 29.74 144.134 28.612 144.134 26.884V25.564C144.134 22.972 145.31 21.7 148.046 21.7H152.03V38.5H149.39V31.66H148.478C147.278 31.66 146.75 32.236 146.75 33.796V36.436C146.75 37.804 146.654 38.068 146.51 38.5ZM149.39 24.1H148.118C147.182 24.1 146.774 24.628 146.774 25.828V27.484C146.774 28.828 147.374 29.26 148.358 29.26H149.39V24.1ZM158.423 21.7C161.159 21.7 162.335 22.972 162.335 25.564V26.164C162.335 27.892 161.807 28.996 160.631 29.548C162.047 30.1 162.599 31.372 162.599 33.148V34.516C162.599 37.108 161.231 38.5 158.591 38.5H154.439V21.7H158.423ZM158.255 30.94H157.079V36.1H158.591C159.479 36.1 159.959 35.692 159.959 34.444V32.98C159.959 31.42 159.455 30.94 158.255 30.94ZM158.351 24.1H157.079V28.54H158.111C159.095 28.54 159.695 28.108 159.695 26.764V25.828C159.695 24.628 159.287 24.1 158.351 24.1ZM170.693 38.5L168.125 31.804L167.309 33.34V38.5H164.669V21.7H167.309V29.02L170.765 21.7H173.405L169.733 29.188L173.405 38.5H170.693ZM183.774 21.7L180.942 34.228C180.318 37.252 179.286 38.764 175.614 38.524V36.172C176.958 36.268 177.726 36.028 177.942 34.804L177.966 34.66L174.318 21.7H176.934L178.374 27.436L179.19 31.372L179.814 27.46L181.014 21.7H183.774ZM193.944 38.5V21.7H198.312V23.86H196.584V36.34H198.312V38.5H193.944ZM214.608 33.46C214.768 33.044 214.944 32.66 215.136 32.308C215.328 31.94 215.544 31.596 215.784 31.276H202.92V29.308H215.784C215.56 28.988 215.352 28.652 215.16 28.3C214.968 27.932 214.792 27.54 214.632 27.124H216.456C217.448 28.292 218.536 29.18 219.72 29.788V30.82C218.536 31.396 217.448 32.276 216.456 33.46H214.608ZM228.696 21.7V38.5H224.328V36.34H226.056V23.86H224.328V21.7H228.696Z" fill="white"/>
</svg>
